<svg width="140" height="135" viewBox="0 0 140 135" fill="none" xmlns="http://www.w3.org/2000/svg">
<path opacity="0.2" d="M137.9 83.8299C128.551 119.991 90.5671 141.996 53.0624 132.98C15.5752 123.965 -7.24698 87.3378 2.10458 51.1789C11.4496 15.0137 49.4311 -6.99554 86.9249 2.01993C124.427 11.0354 147.247 47.6668 137.898 83.8299H137.9Z" fill="#F7931A"/>
<path fill-rule="evenodd" clip-rule="evenodd" d="M91.082 59.6581C92.0258 53.565 87.2148 50.2895 80.6364 48.1044L82.7703 39.8506L77.5586 38.5985L75.4811 46.6348C74.1128 46.3057 72.706 45.9952 71.3081 45.6875L73.4005 37.5982L68.1933 36.3461L66.0579 44.5971C64.9241 44.3481 63.8111 44.102 62.7308 43.843L62.7367 43.8172L55.5514 42.0872L54.1653 47.4533C54.1653 47.4533 58.0311 48.3076 57.9495 48.3605C60.0597 48.8685 60.4425 50.2151 60.3772 51.2826L57.9465 60.6855C58.0919 60.7213 58.2804 60.7728 58.4881 60.8529L57.9391 60.7213L54.5304 73.8933C54.2722 74.5115 53.6178 75.4388 52.1427 75.0868C52.1946 75.1597 48.3556 74.1752 48.3556 74.1752L45.769 79.9277L52.5508 81.5576C53.3163 81.7426 54.0726 81.9329 54.8206 82.121C55.305 82.2429 55.7859 82.3639 56.2637 82.482L54.1075 90.8317L59.3117 92.0838L61.4487 83.8243C62.8688 84.1963 64.2489 84.5397 65.5993 84.8632L63.4713 93.0841L68.6815 94.3362L70.8377 86.0036C79.7222 87.6249 86.4045 86.971 89.2137 79.2237C91.4797 72.9847 89.1024 69.3858 84.4279 67.0376C87.8321 66.2777 90.3964 64.1184 91.0805 59.6581H91.082ZM79.1761 75.755C77.697 81.4813 68.4 79.112 64.15 78.0289C63.7694 77.9319 63.4293 77.8452 63.1389 77.7756L66 66.7156C66.3549 66.801 66.7886 66.8949 67.2799 67.0012C71.6767 67.9526 80.6873 69.9023 79.1776 75.755H79.1761ZM68.1636 61.8689C71.7098 62.7812 79.4397 64.7697 80.7862 59.5679C82.1629 54.2462 74.6464 52.6423 70.9755 51.8589C70.5628 51.7709 70.1987 51.6932 69.9013 51.6217L67.3074 61.6528C67.5528 61.7118 67.8409 61.7859 68.1636 61.8689Z" fill="#F7931A"/>
</svg>
