<svg width="220" height="200" viewBox="0 0 252 252" fill="none" xmlns="http://www.w3.org/2000/svg">
<ellipse cx="126" cy="121.5" rx="126" ry="121.5" fill="#FFFEFE"/>
<path d="M74.1634 113.934C66.9342 113.934 61.2856 118.874 61.2856 125.487C61.2856 132.101 66.7915 136.998 74.1634 136.998C81.5354 136.998 87.137 132.016 87.137 125.445C87.137 118.916 81.6311 113.934 74.1634 113.934ZM74.2122 132.232C70.0954 132.232 67.0788 129.354 67.0788 125.489C67.0788 121.58 70.0467 118.703 74.1634 118.703C78.329 118.703 81.3439 121.624 81.3439 125.489C81.3439 129.354 78.329 132.232 74.2122 132.232ZM88.7158 118.96H92.3069V136.571H98.0512V114.363H88.7158V118.96ZM46.829 118.702C49.8457 118.702 52.2392 120.376 53.1478 122.868H59.2282C58.1262 117.542 53.2436 113.934 46.8778 113.934C39.6486 113.934 34 118.874 34 125.489C34 132.104 39.5059 137 46.8778 137C53.1008 137 58.0793 133.392 59.1812 128.022H53.1478C52.2862 130.513 49.8927 132.232 46.876 132.232C42.7105 132.232 39.7913 129.354 39.7913 125.489C39.7931 121.58 42.6653 118.702 46.829 118.702ZM197.862 123.341L193.649 122.783C191.639 122.526 190.203 121.924 190.203 120.506C190.203 118.96 192.071 118.188 194.607 118.188C197.383 118.188 199.155 119.261 199.538 121.022H205.091C204.468 116.555 200.638 113.935 194.751 113.935C188.671 113.935 184.65 116.727 184.65 120.679C184.65 124.458 187.284 126.65 192.596 127.336L196.809 127.894C198.868 128.151 200.017 128.883 200.017 130.257C200.017 132.018 198.006 132.748 195.23 132.748C191.83 132.748 189.916 131.502 189.628 129.613H183.98C184.507 133.951 188.288 137 195.181 137C201.453 137 205.617 134.423 205.617 129.998C205.617 126.047 202.602 123.985 197.862 123.341ZM95.1791 105.215C93.0728 105.215 91.4922 106.589 91.4922 108.478C91.4922 110.368 93.071 111.742 95.1791 111.742C97.2853 111.742 98.8659 110.368 98.8659 108.478C98.8659 106.589 97.2853 105.215 95.1791 105.215ZM179.48 121.967C179.48 117.157 176.225 113.935 169.332 113.935C162.821 113.935 159.183 116.9 158.464 121.453H164.162C164.449 119.692 165.981 118.232 169.236 118.232C172.157 118.232 173.593 119.391 173.593 120.809C173.593 122.656 170.959 123.128 167.704 123.429C163.3 123.858 157.843 125.232 157.843 130.387C157.843 134.382 161.147 136.958 166.413 136.958C170.529 136.958 173.114 135.411 174.408 132.962C174.599 135.153 176.418 136.571 178.956 136.571H182.307V131.975H179.482V121.967H179.48ZM173.831 127.551C173.831 130.515 170.959 132.705 167.464 132.705C165.309 132.705 163.49 131.889 163.49 130.172C163.49 127.982 166.411 127.38 169.091 127.123C171.676 126.908 173.113 126.393 173.831 125.404V127.551ZM143.338 113.934C140.129 113.934 137.449 115.137 135.534 117.155V105H129.79V136.571H135.438V133.65C137.353 135.754 140.083 137 143.338 137C150.231 137 155.45 132.104 155.45 125.489C155.45 118.874 150.135 113.934 143.338 113.934ZM142.476 132.232C138.359 132.232 135.343 129.354 135.343 125.489C135.343 121.624 138.406 118.703 142.523 118.703C146.689 118.703 149.608 121.581 149.608 125.489C149.608 129.354 146.593 132.232 142.476 132.232ZM116.05 113.934C112.316 113.934 109.874 115.308 108.438 117.241V114.363H102.741V136.569H108.485V124.5C108.485 121.107 110.878 118.702 114.421 118.702C117.725 118.702 119.782 120.806 119.782 123.856V136.571H125.527V123.471C125.528 117.885 122.322 113.934 116.05 113.934ZM233 124.759C233 118.402 227.83 113.935 220.888 113.935C213.516 113.935 208.106 118.918 208.106 125.489C208.106 132.405 213.899 137 220.984 137C226.968 137 231.66 133.821 232.855 129.312H226.871C226.009 131.288 223.903 132.405 221.078 132.405C217.391 132.405 214.614 130.343 213.993 126.734H232.998V124.759H233ZM214.329 123.04C215.24 119.947 217.824 118.445 220.792 118.445C224.048 118.445 226.537 120.119 227.111 123.04H214.329Z" fill="#0052FF"/>
</svg>
