<svg width="128" height="122" viewBox="0 0 128 122" fill="none" xmlns="http://www.w3.org/2000/svg">
<path opacity="0.2" d="M127.653 61.0011C127.653 94.5131 99.1507 121.68 63.9909 121.68C28.8307 121.68 0.328125 94.5131 0.328125 61.0011C0.328125 27.4894 28.8307 0.322876 63.9909 0.322876C99.1503 0.322876 127.653 27.4894 127.653 61.0011Z" fill="#505050"/>
<g opacity="0.8">
<path d="M63.7873 32.8462L63.394 34.12V71.0851L63.7873 71.4592L81.7899 61.3167L63.7873 32.8462Z" fill="white"/>
<path d="M63.7873 32.8462L45.7847 61.3167L63.7873 71.4594V53.5176V32.8462Z" fill="white"/>
<path d="M63.787 77.0419L63.5654 77.2993V90.4671L63.787 91.0839L81.8005 66.9045L63.787 77.0419Z" fill="white"/>
<path d="M63.7873 91.0841V77.0419L45.7847 66.9045L63.7873 91.0841Z" fill="white"/>
<path d="M63.7871 71.4592L81.7895 61.3169L63.7871 53.5178V71.4592Z" fill="white"/>
<path d="M45.7847 61.3167L63.787 71.4592V53.5176L45.7847 61.3167Z" fill="white"/>
</g>
</svg>
