<svg width="220" height="220" viewBox="0 0 268 268" fill="none" xmlns="http://www.w3.org/2000/svg">
<path d="M79.7013 144.112V123.107H83.6473L90.0596 133.055L96.4719 123.107H100.418V144.112H96.7185V129.067L90.0185 138.974H89.8952L83.3185 129.15V144.153H79.7013V144.112ZM109.831 144.441C106.871 144.441 104.199 142.714 104.199 139.549V139.508C104.199 136.096 106.871 134.411 110.735 134.411C112.503 134.411 113.777 134.699 115.01 135.069V134.699C115.01 132.438 113.612 131.246 111.064 131.246C109.296 131.246 107.981 131.616 106.542 132.233L105.597 129.396C107.323 128.615 109.05 128.122 111.557 128.122C113.941 128.122 115.709 128.739 116.818 129.89C117.969 131.041 118.545 132.726 118.545 134.781V144.194H115.01V142.221C113.941 143.413 112.256 144.441 109.831 144.441ZM110.858 141.81C113.242 141.81 115.092 140.412 115.092 138.398V137.329C114.147 136.96 112.914 136.713 111.475 136.713C109.132 136.713 107.734 137.699 107.734 139.344V139.385C107.776 140.947 109.132 141.81 110.858 141.81ZM127.999 144.399C125.327 144.399 123.436 143.248 123.436 139.755V131.41H121.422V128.287H123.436V123.929H127.053V128.287H131.328V131.41H127.053V139.179C127.053 140.577 127.793 141.152 128.985 141.152C129.807 141.152 130.506 140.988 131.246 140.618V143.577C130.383 144.112 129.396 144.399 127.999 144.399ZM134.987 144.112V122.203H138.604V130.712C139.631 129.232 141.111 127.958 143.536 127.958C147.112 127.958 149.168 130.342 149.168 134V144.112H145.55V135.11C145.55 132.644 144.317 131.246 142.139 131.246C140.042 131.246 138.563 132.726 138.563 135.192V144.153H134.987V144.112ZM168.61 144.276L161.293 123.107H165.28L170.295 138.686L175.474 123.066H178.598L183.777 138.686L188.792 123.107H192.656L185.339 144.276H182.133L176.954 129.191L171.775 144.276H168.61ZM198.411 144.441C195.451 144.441 192.779 142.714 192.779 139.549V139.508C192.779 136.096 195.451 134.411 199.315 134.411C201.082 134.411 202.357 134.699 203.59 135.069V134.699C203.59 132.438 202.192 131.246 199.644 131.246C197.876 131.246 196.561 131.616 195.122 132.233L194.177 129.396C195.903 128.615 197.63 128.122 200.137 128.122C202.521 128.122 204.288 128.739 205.398 129.89C206.549 131.041 207.125 132.726 207.125 134.781V144.194H203.59V142.221C202.48 143.413 200.836 144.441 198.411 144.441ZM199.397 141.81C201.781 141.81 203.631 140.412 203.631 138.398V137.329C202.685 136.96 201.452 136.713 200.014 136.713C197.671 136.713 196.273 137.699 196.273 139.344V139.385C196.314 140.947 197.671 141.81 199.397 141.81ZM211.605 144.112V122.203H215.222V144.112H211.605ZM220.155 144.112V122.203H223.772V144.112H220.155ZM235.733 144.482C231.13 144.482 227.595 141.152 227.595 136.261V136.22C227.595 131.698 230.801 127.958 235.322 127.958C240.378 127.958 242.926 131.904 242.926 136.466C242.926 136.795 242.885 137.124 242.885 137.494H231.253C231.623 140.083 233.473 141.522 235.815 141.522C237.583 141.522 238.857 140.864 240.09 139.631L242.228 141.522C240.707 143.331 238.652 144.482 235.733 144.482ZM231.171 135.069H239.309C239.063 132.726 237.706 130.917 235.281 130.917C233.061 130.917 231.499 132.644 231.171 135.069ZM251.846 144.399C249.174 144.399 247.284 143.248 247.284 139.755V131.41H245.269V128.287H247.284V123.929H250.901V128.287H255.176V131.41H250.901V139.179C250.901 140.577 251.641 141.152 252.833 141.152C253.655 141.152 254.353 140.988 255.093 140.618V143.577C254.23 144.112 253.244 144.399 251.846 144.399ZM50.6406 130.095C49.4485 128.903 49.4485 127.012 50.6406 125.82C51.8326 124.628 53.7234 124.628 54.9154 125.82C56.1074 127.012 56.1074 128.903 54.9154 130.095C53.7234 131.287 51.8326 131.287 50.6406 130.095ZM40.5289 140.248C39.6657 139.385 39.6657 137.946 40.5289 137.042C41.3921 136.179 42.8307 136.179 43.735 137.042C44.5982 137.905 44.5982 139.344 43.735 140.248C42.8307 141.111 41.3921 141.111 40.5289 140.248ZM56.5185 134.904C55.6553 134.041 55.6553 132.602 56.5185 131.698C57.3817 130.835 58.8203 130.835 59.7246 131.698C60.5878 132.561 60.5878 134 59.7246 134.904C58.8203 135.809 57.3817 135.809 56.5185 134.904ZM51.1749 140.248C50.3117 139.385 50.3117 137.946 51.1749 137.042C52.0381 136.179 53.4768 136.179 54.3811 137.042C55.2442 137.905 55.2442 139.344 54.3811 140.248C53.4768 141.111 52.0792 141.111 51.1749 140.248ZM62.3964 139.714C61.8209 139.138 61.8209 138.152 62.3964 137.576C62.9719 137.001 63.9584 137.001 64.5338 137.576C65.1093 138.152 65.1093 139.138 64.5338 139.714C63.9172 140.289 62.9719 140.289 62.3964 139.714ZM57.0528 145.057C56.4774 144.482 56.4774 143.495 57.0528 142.92C57.6283 142.344 58.6148 142.344 59.1903 142.92C59.7657 143.495 59.7657 144.482 59.1903 145.057C58.5737 145.633 57.6283 145.633 57.0528 145.057ZM45.297 135.439C44.105 134.247 44.105 132.356 45.297 131.164C46.489 129.972 48.3798 129.972 49.5718 131.164C50.7639 132.356 50.7639 134.247 49.5718 135.439C48.4209 136.631 46.489 136.631 45.297 135.439ZM45.297 124.793C44.105 123.601 44.105 121.71 45.297 120.518C46.489 119.326 48.3798 119.326 49.5718 120.518C50.7639 121.71 50.7639 123.601 49.5718 124.793C48.4209 125.944 46.489 125.944 45.297 124.793ZM39.9946 130.095C38.8025 128.903 38.8025 127.012 39.9946 125.82C41.1866 124.628 43.0774 124.628 44.2694 125.82C45.4614 127.012 45.4614 128.903 44.2694 130.095C43.0774 131.287 41.1455 131.287 39.9946 130.095ZM29.2663 130.095C28.0743 128.903 28.0743 127.012 29.2663 125.82C30.4584 124.628 32.3491 124.628 33.5412 125.82C34.7332 127.012 34.7332 128.903 33.5412 130.095C32.3491 131.287 30.4584 131.287 29.2663 130.095ZM19.1136 140.248C18.2504 139.385 18.2504 137.946 19.1136 137.042C19.9768 136.179 21.4154 136.179 22.3197 137.042C23.1829 137.905 23.1829 139.344 22.3197 140.248C21.4565 141.111 20.0179 141.111 19.1136 140.248ZM35.1442 134.904C34.2811 134.041 34.2811 132.602 35.1442 131.698C36.0074 130.835 37.4461 130.835 38.3504 131.698C39.2136 132.561 39.2136 134 38.3504 134.904C37.4461 135.809 36.0074 135.809 35.1442 134.904ZM29.8007 140.248C28.9375 139.385 28.9375 137.946 29.8007 137.042C30.6639 136.179 32.1025 136.179 33.0068 137.042C33.87 137.905 33.87 139.344 33.0068 140.248C32.1025 141.111 30.6639 141.111 29.8007 140.248ZM9.00191 139.714C8.42645 139.138 8.42645 138.152 9.00191 137.576C9.57737 137.001 10.5639 137.001 11.1393 137.576C11.7148 138.152 11.7148 139.138 11.1393 139.714C10.5228 140.289 9.57737 140.289 9.00191 139.714ZM14.3455 145.057C13.77 144.482 13.77 143.495 14.3455 142.92C14.9209 142.344 15.9074 142.344 16.4829 142.92C17.0583 143.495 17.0583 144.482 16.4829 145.057C15.8663 145.633 14.9209 145.633 14.3455 145.057ZM35.6786 145.057C35.1031 144.482 35.1031 143.495 35.6786 142.92C36.2541 142.344 37.2406 142.344 37.816 142.92C38.3915 143.495 38.3915 144.482 37.816 145.057C37.1995 145.633 36.2541 145.633 35.6786 145.057ZM13.8111 134.904C12.9479 134.041 12.9479 132.602 13.8111 131.698C14.6743 130.835 16.113 130.835 17.0172 131.698C17.8804 132.561 17.8804 134 17.0172 134.904C16.113 135.809 14.6743 135.809 13.8111 134.904ZM23.9228 135.439C22.7307 134.247 22.7307 132.356 23.9228 131.164C25.1148 129.972 27.0056 129.972 28.1976 131.164C29.3896 132.356 29.3896 134.247 28.1976 135.439C27.0056 136.631 25.1148 136.631 23.9228 135.439ZM23.9228 124.793C22.7307 123.601 22.7307 121.71 23.9228 120.518C25.1148 119.326 27.0056 119.326 28.1976 120.518C29.3896 121.71 29.3896 123.601 28.1976 124.793C27.0056 125.944 25.1148 125.944 23.9228 124.793ZM18.5792 130.095C17.3872 128.903 17.3872 127.012 18.5792 125.82C19.7712 124.628 21.662 124.628 22.8541 125.82C24.0461 127.012 24.0461 128.903 22.8541 130.095C21.7031 131.287 19.7712 131.287 18.5792 130.095Z" fill="black"/>
</svg>
