<svg width="150" height="150" viewBox="0 0 150 150" fill="none" xmlns="http://www.w3.org/2000/svg">
<path d="M75 150C116.421 150 150 116.421 150 75C150 33.5786 116.421 0 75 0C33.5786 0 0 33.5786 0 75C0 116.421 33.5786 150 75 150Z" fill="#8247E5"/>
<path d="M99.8242 58.9535C98.0254 57.907 95.6868 57.907 93.7081 58.9535L79.6766 66.9768L70.1425 72.2093L56.1112 80.2326C54.3123 81.2791 51.9738 81.2791 49.9949 80.2326L38.8417 73.9535C37.0429 72.907 35.7837 70.9884 35.7837 68.8953V56.5116C35.7837 54.4187 36.863 52.5 38.8417 51.4535L49.815 45.3488C51.6139 44.3023 53.9525 44.3023 55.9313 45.3488L66.9045 51.4535C68.7035 52.5 69.9627 54.4187 69.9627 56.5116V64.5349L79.4967 59.1278V51.1046C79.4967 49.0116 78.4174 47.093 76.4387 46.0465L56.1112 34.5349C54.3123 33.4884 51.9738 33.4884 49.9949 34.5349L29.3077 46.0465C27.3288 47.093 26.2495 49.0116 26.2495 51.1046V74.3023C26.2495 76.3953 27.3288 78.3139 29.3077 79.3604L49.9949 90.872C51.7939 91.9187 54.1324 91.9187 56.1112 90.872L70.1425 83.0232L79.6766 77.6162L93.7081 69.7674C95.5069 68.721 97.8455 68.721 99.8242 69.7674L110.798 75.872C112.596 76.9187 113.856 78.8372 113.856 80.9303V93.3139C113.856 95.407 112.776 97.3255 110.798 98.372L99.8242 104.651C98.0254 105.698 95.6868 105.698 93.7081 104.651L82.7348 98.5465C80.9359 97.5 79.6766 95.5814 79.6766 93.4884V85.4651L70.1425 90.872V98.8953C70.1425 100.988 71.2218 102.907 73.2007 103.954L93.8879 115.465C95.6868 116.512 98.0254 116.512 100.004 115.465L120.691 103.954C122.49 102.907 123.75 100.988 123.75 98.8953V75.6977C123.75 73.6046 122.67 71.6861 120.691 70.6395L99.8242 58.9535Z" fill="white"/>
</svg>
