<svg width="220" height="220" viewBox="0 0 252 210" fill="none" xmlns="http://www.w3.org/2000/svg">
<ellipse cx="126" cy="121.5" rx="126" ry="121.5" fill="#FFFEFE"/>
<path d="M81.0278 65.791C92.8583 74.9567 106.426 74.3911 110.301 74.3911C109.455 126.521 102.994 119.576 81.0278 134.193C59.0617 119.578 52.6406 126.521 51.7979 74.3911C55.6281 74.3911 69.1973 74.9567 81.0278 65.791Z" fill="white"/>
<path d="M81.0276 65.791L82.7359 63.5836C82.2468 63.2053 81.646 63 81.0276 63C80.4093 63 79.8085 63.2053 79.3194 63.5836L81.0276 65.791ZM110.301 74.391L113.095 74.4366C113.101 74.066 113.033 73.698 112.895 73.354C112.757 73.01 112.552 72.6968 112.292 72.4327C112.032 72.1686 111.722 71.9589 111.381 71.8158C111.039 71.6727 110.672 71.599 110.301 71.599V74.391ZM81.0276 134.193L79.4807 136.518C79.9388 136.823 80.4771 136.986 81.0276 136.986C81.5782 136.986 82.1165 136.823 82.5746 136.518L81.0276 134.193ZM51.7977 74.391V71.599C51.4273 71.5992 51.0606 71.6731 50.7189 71.8163C50.3773 71.9596 50.0676 72.1693 49.8078 72.4334C49.5479 72.6974 49.3432 73.0105 49.2055 73.3544C49.0678 73.6983 48.9999 74.0662 49.0057 74.4366L51.7977 74.391ZM79.3194 67.9984C91.9927 77.817 106.494 77.185 110.303 77.185V71.599C106.363 71.599 93.7275 72.0963 82.7397 63.5836L79.3194 67.9984ZM107.511 74.3455C107.302 87.3167 106.752 96.4672 105.702 103.245C104.664 109.953 103.182 113.971 101.272 116.795C99.3381 119.728 96.9067 121.468 93.3175 123.617C89.6903 125.788 85.1103 128.129 79.4826 131.868L82.5765 136.518C87.9308 132.95 92.3951 130.676 96.1855 128.409C100.006 126.119 103.366 123.598 105.9 119.923C108.458 116.139 110.121 111.207 111.214 104.099C112.3 97.0613 112.877 87.5312 113.091 74.4366L107.511 74.3455ZM82.5746 131.868C76.9468 128.129 72.3688 125.794 68.7473 123.617C65.1562 121.47 62.7343 119.73 60.8059 116.797C58.9078 113.975 57.4235 109.964 56.3891 103.247C55.3414 96.4672 54.7947 87.3167 54.5841 74.3455L49 74.4366C49.2145 87.5331 49.7877 97.0613 50.8696 104.097C51.9647 111.206 53.6236 116.137 56.1841 119.921C58.7104 123.596 62.0681 126.119 65.885 128.409C69.6697 130.674 74.132 132.95 79.4883 136.518L82.5746 131.868ZM51.792 77.185C55.5634 77.185 70.0645 77.817 82.7302 67.9984L79.3137 63.5836C68.324 72.0963 55.6887 71.599 51.792 71.599V77.185Z" fill="#3375BB"/>
<path d="M137.193 83.9989H131.567V99.3048H127.78V83.9989H122.229V80.9336H137.193V83.9989ZM146.167 92.5895H143.151V99.3143H139.364V80.9336H146.197C148.368 80.9336 150.043 81.4169 151.219 82.3837C152.396 83.3504 152.985 84.7177 152.986 86.4854C152.986 87.7381 152.713 88.7852 152.166 89.6266C151.62 90.4681 150.797 91.1331 149.699 91.6215L153.673 99.1283V99.3048H149.612L146.167 92.5895ZM143.151 89.5222H146.205C147.155 89.5222 147.891 89.2825 148.412 88.8029C148.933 88.3233 149.194 87.6546 149.194 86.7966C149.194 85.9311 148.946 85.2497 148.45 84.7524C147.954 84.2552 147.201 84.0072 146.191 84.0084H143.154L143.151 89.5222ZM169.776 80.9431V93.0431C169.776 95.0538 169.144 96.6437 167.878 97.8129C166.613 98.9821 164.897 99.5667 162.731 99.5667C160.58 99.5667 158.876 98.9973 157.62 97.8585C156.363 96.7196 155.72 95.1588 155.689 93.176V80.9336H159.476V93.0602C159.476 94.2623 159.761 95.1411 160.332 95.6966C160.902 96.2521 161.702 96.5254 162.731 96.5165C164.858 96.5165 165.939 95.398 165.973 93.1608V80.9336L169.776 80.9431ZM182.406 94.4875C182.423 94.1727 182.363 93.8583 182.231 93.5721C182.099 93.2859 181.898 93.0364 181.647 92.8457C181.141 92.4661 180.232 92.0625 178.921 91.6348C177.848 91.3042 176.805 90.8819 175.805 90.3726C173.718 89.2464 172.675 87.728 172.675 85.8173C172.66 84.8651 172.953 83.9335 173.508 83.16C174.125 82.3368 174.96 81.703 175.919 81.3303C177.041 80.8804 178.242 80.6578 179.451 80.6754C180.659 80.6533 181.858 80.899 182.96 81.3948C183.932 81.82 184.759 82.5166 185.344 83.401C185.92 84.2766 186.219 85.3049 186.202 86.3525H182.419C182.419 85.511 182.154 84.8594 181.624 84.3975C181.094 83.9357 180.349 83.7003 179.39 83.6914C178.466 83.6914 177.747 83.8888 177.232 84.2836C176.988 84.4579 176.79 84.6893 176.656 84.9576C176.522 85.226 176.456 85.5231 176.463 85.8229C176.463 86.4202 176.762 86.9207 177.359 87.3243C177.956 87.728 178.842 88.1076 180.016 88.4631C182.168 89.111 183.736 89.9139 184.722 90.8718C185.203 91.3336 185.584 91.8908 185.838 92.5078C186.092 93.1249 186.215 93.7881 186.198 94.4553C186.198 96.0458 185.597 97.2954 184.395 98.2039C183.193 99.1124 181.574 99.5623 179.536 99.5534C178.21 99.5741 176.895 99.3154 175.676 98.7942C174.608 98.3449 173.688 97.6059 173.018 96.6608C172.406 95.7315 172.092 94.6378 172.117 93.5252H175.913C175.913 95.5498 177.124 96.5621 179.548 96.5621C180.447 96.5621 181.15 96.3812 181.654 96.0193C181.896 95.8458 182.092 95.6152 182.223 95.3479C182.354 95.0806 182.417 94.7851 182.406 94.4875ZM202.609 84.0008H196.981V99.3067H193.185V83.9989H187.643V80.9336H202.609V84.0008Z" fill="#3375BB"/>
<path d="M128.94 116.025L129.384 118.253L129.927 116.125L133.042 105.548H134.137L137.212 116.125L137.745 118.274L138.218 116.027L140.81 105.548H142.052L138.375 119.901H137.212L133.966 108.67L133.586 107.25L133.231 108.67L129.898 119.899H128.737L125.068 105.546H126.311L128.94 116.025ZM151.703 115.877H145.187L143.709 119.899H142.437L147.869 105.546H149.021L154.453 119.899H153.191L151.703 115.877ZM145.561 114.842H151.318L148.44 107.024L145.561 114.842ZM157.796 118.874H164.883V119.899H156.574V105.546H157.796V118.874ZM168.442 118.874H175.533V119.899H167.22V105.546H168.442V118.874ZM185.792 113.018H179.079V118.874H186.798V119.899H177.868V105.546H186.749V106.58H179.079V111.993H185.792V113.018ZM199.299 106.58H194.379V119.899H193.166V106.58H188.25V105.546H199.291L199.299 106.58Z" fill="#2E91DB"/>
</svg>
