<svg width="220" height="220" viewBox="0 0 194 194" fill="none" xmlns="http://www.w3.org/2000/svg">
<path d="M194 97C194 43.4284 150.572 0 97 0C43.4284 0 0 43.4284 0 97C0 150.572 43.4284 194 97 194C150.572 194 194 150.572 194 97Z" fill="white"/>
<path d="M64.1148 69.9202C82.2769 52.1379 111.723 52.1379 129.886 69.9202L132.071 72.0603C132.98 72.9494 132.98 74.3909 132.071 75.28L124.594 82.601C124.14 83.0455 123.404 83.0455 122.95 82.601L119.942 79.6559C107.272 67.2506 86.7288 67.2506 74.0585 79.6559L70.8372 82.8098C70.3832 83.2544 69.647 83.2544 69.1929 82.8098L61.7156 75.4889C60.8075 74.5998 60.8075 73.1583 61.7156 72.2691L64.1148 69.9202ZM145.349 85.0606L152.004 91.5763C152.912 92.4654 152.912 93.9069 152.004 94.796L121.997 124.176C121.089 125.065 119.617 125.065 118.709 124.176C118.709 124.176 118.709 124.176 118.709 124.176L97.4114 103.324C97.1844 103.102 96.8163 103.102 96.5893 103.324C96.5893 103.324 96.5893 103.324 96.5893 103.324L75.2925 124.176C74.3844 125.065 72.9121 125.065 72.004 124.176C72.004 124.176 72.004 124.176 72.0039 124.176L41.996 94.7956C41.0879 93.9065 41.0879 92.465 41.996 91.5759L48.6509 85.0602C49.559 84.1711 51.0313 84.1711 51.9394 85.0602L73.2369 105.912C73.4639 106.135 73.832 106.135 74.0591 105.912C74.0591 105.912 74.0591 105.912 74.0591 105.912L95.3555 85.0602C96.2636 84.1711 97.7359 84.1711 98.6441 85.0602C98.6441 85.0602 98.6441 85.0602 98.6441 85.0602L119.942 105.912C120.169 106.135 120.537 106.135 120.764 105.912L142.061 85.0606C142.969 84.1715 144.441 84.1715 145.349 85.0606Z" fill="#3B99FC"/>
</svg>
