<svg width="18" height="21" viewBox="0 0 18 21" fill="currentColor" xmlns="http://www.w3.org/2000/svg">
<path d="M18 14.7656V0.984375C18 0.438867 17.5701 0 17.0357 0H3.85714C1.72768 0 0 1.76367 0 3.9375V17.0625C0 19.2363 1.72768 21 3.85714 21H17.0357C17.5701 21 18 20.5611 18 20.0156V19.3594C18 19.0518 17.8594 18.7729 17.6424 18.5924C17.4737 17.9607 17.4737 16.1602 17.6424 15.5285C17.8594 15.3521 18 15.0732 18 14.7656ZM5.14286 5.49609C5.14286 5.36074 5.25134 5.25 5.38393 5.25H13.9018C14.0344 5.25 14.1429 5.36074 14.1429 5.49609V6.31641C14.1429 6.45176 14.0344 6.5625 13.9018 6.5625H5.38393C5.25134 6.5625 5.14286 6.45176 5.14286 6.31641V5.49609ZM5.14286 8.12109C5.14286 7.98574 5.25134 7.875 5.38393 7.875H13.9018C14.0344 7.875 14.1429 7.98574 14.1429 8.12109V8.94141C14.1429 9.07676 14.0344 9.1875 13.9018 9.1875H5.38393C5.25134 9.1875 5.14286 9.07676 5.14286 8.94141V8.12109ZM15.3241 18.375H3.85714C3.14598 18.375 2.57143 17.7885 2.57143 17.0625C2.57143 16.3406 3.15 15.75 3.85714 15.75H15.3241C15.2478 16.4514 15.2478 17.6736 15.3241 18.375Z" fill="currentColor" fill-opacity="0.4"/>
</svg>
