<svg width="18" height="18" viewBox="0 0 18 18" fill="none" xmlns="http://www.w3.org/2000/svg">
<path fill-rule="evenodd" clip-rule="evenodd" d="M6.57946 8.35841C6.21487 8.35841 5.9266 8.64175 5.9266 9.00008C5.9266 9.35008 6.21487 9.64175 6.57946 9.64175H11.6667V13.6251C11.6667 15.6667 9.97941 17.3334 7.89365 17.3334H3.76453C1.68726 17.3334 0 15.6751 0 13.6334V4.37508C0 2.32508 1.69574 0.666748 3.77301 0.666748H7.91061C9.97941 0.666748 11.6667 2.32508 11.6667 4.36675V8.35841H6.57946ZM14.6919 6.11692L17.1252 8.54192C17.2502 8.66692 17.3169 8.82525 17.3169 9.00025C17.3169 9.16692 17.2502 9.33359 17.1252 9.45025L14.6919 11.8753C14.5669 12.0003 14.4002 12.0669 14.2419 12.0669C14.0752 12.0669 13.9085 12.0003 13.7835 11.8753C13.5335 11.6253 13.5335 11.2169 13.7835 10.9669L15.1169 9.64192H11.6669V8.35859H15.1169L13.7835 7.03359C13.5335 6.78359 13.5335 6.37525 13.7835 6.12525C14.0335 5.86692 14.4419 5.86692 14.6919 6.11692Z" fill="#030229"/>
</svg>
