<svg width="21" height="21" viewBox="0 0 63 49" fill="none" xmlns="http://www.w3.org/2000/svg">
<path d="M59.3063 0.0059397C53.3125 0.346094 41.3992 1.58421 34.0447 6.08607C33.5371 6.39669 33.2495 6.94903 33.2495 7.52653V47.3246C33.2495 48.5879 34.6309 49.3863 35.7958 48.8001C43.3625 44.9917 54.3056 43.9526 59.7165 43.6682C61.5639 43.5709 63 42.09 63 40.3148V3.36374C63.0011 1.42671 61.3211 -0.10781 59.3063 0.0059397ZM28.9553 6.08607C21.6019 1.58421 9.68861 0.347188 3.69475 0.0059397C1.68003 -0.10781 0 1.42671 0 3.36374V40.3159C0 42.0921 1.43612 43.5731 3.28349 43.6693C8.69656 43.9537 19.6452 44.9938 27.2119 48.8045C28.3735 49.3896 29.7505 48.5923 29.7505 47.3323V7.50684C29.7505 6.92825 29.464 6.39778 28.9553 6.08607Z" fill="#030229"/>
</svg>
