<svg width="24" height="24" viewBox="0 0 24 24" fill="none" xmlns="http://www.w3.org/2000/svg">
<path fill-rule="evenodd" clip-rule="evenodd" d="M20.4022 13.5801C20.7599 13.7701 21.0358 14.0701 21.23 14.3701C21.6081 14.9901 21.5775 15.7501 21.2096 16.4201L20.4942 17.6201C20.1161 18.2601 19.4109 18.6601 18.6853 18.6601C18.3277 18.6601 17.9291 18.5601 17.6021 18.3601C17.3364 18.1901 17.0298 18.1301 16.7027 18.1301C15.691 18.1301 14.8428 18.9601 14.8121 19.9501C14.8121 21.1001 13.8719 22.0001 12.6967 22.0001H11.3068C10.1213 22.0001 9.18113 21.1001 9.18113 19.9501C9.16069 18.9601 8.31247 18.1301 7.30073 18.1301C6.96348 18.1301 6.6569 18.1901 6.40141 18.3601C6.07438 18.5601 5.6656 18.6601 5.31813 18.6601C4.58232 18.6601 3.87717 18.2601 3.49905 17.6201L2.7939 16.4201C2.41577 15.7701 2.39533 14.9901 2.77346 14.3701C2.93697 14.0701 3.24356 13.7701 3.59102 13.5801C3.87717 13.4401 4.06112 13.2101 4.23486 12.9401C4.74584 12.0801 4.43925 10.9501 3.57059 10.4401C2.55885 9.8701 2.23182 8.6001 2.81434 7.6101L3.49905 6.4301C4.09178 5.4401 5.35901 5.0901 6.38097 5.6701C7.27007 6.1501 8.42488 5.8301 8.94608 4.9801C9.10959 4.7001 9.20157 4.4001 9.18113 4.1001C9.16069 3.7101 9.27311 3.3401 9.46728 3.0401C9.8454 2.4201 10.5301 2.0201 11.2761 2.0001H12.7171C13.4734 2.0001 14.1581 2.4201 14.5362 3.0401C14.7201 3.3401 14.8428 3.7101 14.8121 4.1001C14.7917 4.4001 14.8837 4.7001 15.0472 4.9801C15.5684 5.8301 16.7232 6.1501 17.6225 5.6701C18.6342 5.0901 19.9117 5.4401 20.4942 6.4301L21.1789 7.6101C21.7716 8.6001 21.4446 9.8701 20.4227 10.4401C19.554 10.9501 19.2474 12.0801 19.7686 12.9401C19.9321 13.2101 20.1161 13.4401 20.4022 13.5801ZM9.10959 12.0101C9.10959 13.5801 10.4075 14.8301 12.012 14.8301C13.6164 14.8301 14.8837 13.5801 14.8837 12.0101C14.8837 10.4401 13.6164 9.1801 12.012 9.1801C10.4075 9.1801 9.10959 10.4401 9.10959 12.0101Z" fill="currentColor"/>
</svg>
