<svg width="21" height="18" viewBox="0 0 21 18" fill="none" xmlns="http://www.w3.org/2000/svg">
<path d="M18.9164 3.85714H3.28125C2.91867 3.85714 2.625 3.56946 2.625 3.21429C2.625 2.85911 2.91867 2.57143 3.28125 2.57143H19.0312C19.3938 2.57143 19.6875 2.28375 19.6875 1.92857C19.6875 0.863437 18.8061 0 17.7188 0H2.625C1.1751 0 0 1.15112 0 2.57143V15.4286C0 16.8489 1.1751 18 2.625 18H18.9164C20.0657 18 21 17.135 21 16.0714V5.78571C21 4.72219 20.0657 3.85714 18.9164 3.85714ZM17.0625 12.2143C16.3378 12.2143 15.75 11.6385 15.75 10.9286C15.75 10.2186 16.3378 9.64286 17.0625 9.64286C17.7872 9.64286 18.375 10.2186 18.375 10.9286C18.375 11.6385 17.7872 12.2143 17.0625 12.2143Z" fill="currentColor"/>
</svg>
