<svg width="59" height="59" viewBox="0 0 59 59" fill="none" xmlns="http://www.w3.org/2000/svg">
<path d="M57.3751 16.3668L52.0626 21.6793C51.5209 22.221 50.6451 22.221 50.1035 21.6793L37.3119 8.8878C36.7703 8.34618 36.7703 7.47037 37.3119 6.92874L42.6244 1.61623C44.7794 -0.538742 48.2827 -0.538742 50.4492 1.61623L57.3751 8.54209C59.5416 10.6971 59.5416 14.2003 57.3751 16.3668ZM32.7484 11.4922L2.48645 41.754L0.0433653 55.7555C-0.29083 57.6454 1.3571 59.2818 3.24703 58.9591L17.2487 56.5045L47.5106 26.2428C48.0522 25.7012 48.0522 24.8254 47.5106 24.2837L34.719 11.4922C34.1658 10.9506 33.29 10.9506 32.7484 11.4922ZM14.2985 39.1611C13.6647 38.5273 13.6647 37.5132 14.2985 36.8793L32.0454 19.1325C32.6793 18.4987 33.6934 18.4987 34.3272 19.1325C34.961 19.7664 34.961 20.7805 34.3272 21.4143L16.5803 39.1611C15.9464 39.7949 14.9323 39.7949 14.2985 39.1611ZM10.1384 48.8527H15.6699V53.0358L8.23691 54.338L4.65295 50.7541L5.95516 43.3212H10.1384V48.8527Z" fill="#030229"/>
</svg>
