<svg id="prefix__katman_1" data-name="katman 1" xmlns="http://www.w3.org/2000/svg" viewBox="0 0 1000 1000"><defs><style></style></defs><g id="prefix__Canvas"><g id="prefix__logo_solid_side" data-name="logo solid side"><g id="prefix__logo_solid_white" data-name="logo solid white"><path id="prefix__path0_fill" data-name="path0 fill" d="M264.09 319.81c62.33 48.29 133.81 45.31 154.23 45.31-4.46 274.65-38.5 238.06-154.23 315.07-115.73-77-149.56-40.42-154-315.07 20.18 0 91.67 2.98 154-45.31z" fill="#fff"/><path id="prefix__path1_stroke" data-name="path1 stroke" d="M264.09 319.81l9-11.63a14.71 14.71 0 00-18 0zm154.23 45.31l14.72.24a14.72 14.72 0 00-14.72-14.95zM264.09 680.19l-8.15 12.25a14.69 14.69 0 0016.3 0zm-154-315.07v-14.71a14.72 14.72 0 00-14.71 14.95zm145-33.68c66.77 51.73 143.17 48.4 163.24 48.4v-29.43c-20.76 0-87.33 2.62-145.22-42.23zm148.53 33.44c-1.1 68.34-4 116.55-9.53 152.26-5.47 35.34-13.28 56.51-23.34 71.39-10.19 15.45-23 24.62-41.91 35.94-19.11 11.44-43.24 23.77-72.89 43.47l16.3 24.5c28.21-18.8 51.73-30.78 71.7-42.72 20.13-12.07 37.83-25.35 51.18-44.71 13.48-19.94 22.24-45.92 28-83.37 5.72-37.08 8.76-87.29 9.89-156.28zM272.24 667.94c-29.65-19.7-53.77-32-72.85-43.47-18.92-11.31-31.68-20.48-41.84-35.93-10-14.87-17.82-36-23.27-71.39-5.52-35.72-8.4-83.93-9.51-152.27l-29.42.48c1.13 69 4.15 119.2 9.85 156.27 5.77 37.45 14.51 63.43 28 83.37 13.31 19.36 31 32.65 51.11 44.72 19.94 11.93 43.45 23.92 71.67 42.72zm-162.18-288.1c19.87 0 96.27 3.33 163-48.4l-18-23.26c-57.9 44.85-124.47 42.23-145 42.23z" fill="#3375bb"/></g></g></g></svg>